<svg width="64" height="64" viewBox="0 0 64 64" fill="none" xmlns="http://www.w3.org/2000/svg">
<path d="M64 32C64 14.3265 49.6735 0 32 0C14.3265 0 0 14.3265 0 32C0 47.9716 11.7001 61.2124 26.9985 63.6113V41.2492H18.8729V32H26.9985V24.9505C26.9985 16.9292 31.7772 12.5013 39.0874 12.5013C42.5908 12.5013 46.2507 13.1271 46.2507 13.1271V21.0015H42.2163C38.2436 21.0015 37.0015 23.4667 37.0015 25.9982V32H45.8761L44.4587 41.2492H37.0015V63.6113C52.2999 61.2124 64 47.9716 64 32Z" fill="white"/>
<path d="M44.4539 41.2493L45.8714 32.0001H36.9967V25.9984C36.9967 23.4668 38.2341 21.0016 42.2116 21.0016H46.2459V13.1272C46.2459 13.1272 42.5861 12.5015 39.0827 12.5015C31.7724 12.5015 26.9938 16.9293 26.9938 24.9507V32.0001H18.8681V41.2493H26.9938V63.6114C28.6246 63.8674 30.2933 64.0001 31.9953 64.0001C33.6972 64.0001 35.3659 63.8674 36.9967 63.6114V41.2493H44.4539Z" fill="black"/>
</svg>
