<svg width="64" height="64" viewBox="0 0 64 64" fill="none" xmlns="http://www.w3.org/2000/svg">
<path d="M32 64C49.6731 64 64 49.6731 64 32C64 14.3269 49.6731 0 32 0C14.3269 0 0 14.3269 0 32C0 49.6731 14.3269 64 32 64Z" fill="white"/>
<path d="M32 15.4832C37.3807 15.4832 38.016 15.5022 40.1399 15.6017C42.1025 15.6918 43.1692 16.0189 43.8803 16.2939C44.819 16.6589 45.4922 17.0951 46.1985 17.8014C46.9049 18.5078 47.341 19.1762 47.7061 20.1197C47.981 20.8308 48.3081 21.8974 48.3982 23.8601C48.493 25.984 48.5167 26.624 48.5167 32C48.5167 37.3759 48.4978 38.0159 48.3982 40.1398C48.3081 42.1025 47.981 43.1691 47.7061 43.8802C47.341 44.8189 46.9049 45.4921 46.1985 46.1985C45.4922 46.9048 44.8237 47.341 43.8803 47.706C43.1692 47.981 42.1025 48.3081 40.1399 48.3982C38.016 48.493 37.3807 48.5167 32 48.5167C26.6193 48.5167 25.984 48.4977 23.8602 48.3982C21.8975 48.3081 20.8308 47.981 20.1197 47.706C19.181 47.341 18.5079 46.9048 17.8015 46.1985C17.0951 45.4921 16.659 44.8237 16.2939 43.8802C16.019 43.1691 15.6919 42.1025 15.6018 40.1398C15.507 38.0159 15.4833 37.3759 15.4833 32C15.4833 26.624 15.5022 25.984 15.6018 23.8601C15.6919 21.8974 16.019 20.8308 16.2939 20.1197C16.659 19.181 17.0951 18.5078 17.8015 17.8014C18.5079 17.0951 19.1763 16.6589 20.1197 16.2939C20.8308 16.0189 21.8975 15.6918 23.8602 15.6017C25.984 15.5069 26.624 15.4832 32 15.4832ZM32 11.8518C26.5292 11.8518 25.8418 11.8755 23.6942 11.9751C21.5514 12.0746 20.0865 12.4112 18.8018 12.9137C17.4791 13.4305 16.3556 14.1179 15.232 15.2367C14.1132 16.3555 13.421 17.4791 12.909 18.8065C12.4113 20.0865 12.0699 21.5514 11.9704 23.6989C11.8708 25.8465 11.8471 26.5339 11.8471 32.0047C11.8471 37.4755 11.8708 38.1629 11.9704 40.3105C12.0699 42.4533 12.4065 43.9182 12.909 45.2029C13.4258 46.5256 14.1132 47.6491 15.232 48.7727C16.3508 49.8915 17.4744 50.5836 18.8018 51.0956C20.0818 51.5934 21.5467 51.9348 23.6942 52.0343C25.8418 52.1339 26.5292 52.1576 32 52.1576C37.4708 52.1576 38.1582 52.1339 40.3058 52.0343C42.4486 51.9348 43.9135 51.5982 45.1982 51.0956C46.5209 50.5789 47.6444 49.8915 48.768 48.7727C49.8868 47.6539 50.5789 46.5303 51.0909 45.2029C51.5887 43.9229 51.9301 42.458 52.0296 40.3105C52.1292 38.1629 52.1529 37.4755 52.1529 32.0047C52.1529 26.5339 52.1292 25.8465 52.0296 23.6989C51.9301 21.5561 51.5935 20.0912 51.0909 18.8065C50.5742 17.4838 49.8868 16.3602 48.768 15.2367C47.6492 14.1179 46.5256 13.4257 45.1982 12.9137C43.9182 12.416 42.4533 12.0746 40.3058 11.9751C38.1582 11.8755 37.4708 11.8518 32 11.8518Z" fill="black"/>
<path d="M32 21.6558C26.2874 21.6558 21.6557 26.2875 21.6557 32.0001C21.6557 37.7126 26.2874 42.3443 32 42.3443C37.7126 42.3443 42.3443 37.7126 42.3443 32.0001C42.3443 26.2875 37.7126 21.6558 32 21.6558ZM32 38.7177C28.2927 38.7177 25.2824 35.7121 25.2824 32.0001C25.2824 28.2881 28.288 25.2824 32 25.2824C35.712 25.2824 38.7176 28.2881 38.7176 32.0001C38.7176 35.7121 35.712 38.7177 32 38.7177Z" fill="black"/>
<path d="M42.7567 23.661C44.092 23.661 45.1745 22.5785 45.1745 21.2432C45.1745 19.9079 44.092 18.8254 42.7567 18.8254C41.4214 18.8254 40.339 19.9079 40.339 21.2432C40.339 22.5785 41.4214 23.661 42.7567 23.661Z" fill="black"/>
</svg>
