<svg width="64" height="64" viewBox="0 0 64 64" fill="none" xmlns="http://www.w3.org/2000/svg">
<path d="M32 64C49.6731 64 64 49.6731 64 32C64 14.3269 49.6731 0 32 0C14.3269 0 0 14.3269 0 32C0 49.6731 14.3269 64 32 64Z" fill="white"/>
<path d="M53.7031 28.9184C53.7031 19.1619 43.9182 11.2212 31.8957 11.2212C19.8732 11.2212 10.0883 19.1619 10.0883 28.9184C10.0883 37.6651 17.8441 44.9942 28.3259 46.3785C29.037 46.5302 30.0041 46.8479 30.2459 47.4547C30.464 48.0046 30.3881 48.8674 30.317 49.4268C30.317 49.4268 30.061 50.9676 30.0041 51.2947C29.9093 51.8446 29.568 53.4517 31.8909 52.4704C34.2186 51.4891 44.4492 45.0748 49.024 39.8079C52.186 36.3424 53.6983 32.8248 53.6983 28.9184" fill="black"/>
<path d="M27.4631 24.2061H25.9318C25.6995 24.2061 25.5052 24.3957 25.5052 24.628V34.1284C25.5052 34.3607 25.6948 34.5504 25.9318 34.5504H27.4631C27.6954 34.5504 27.8897 34.3607 27.8897 34.1284V24.628C27.8897 24.3957 27.7001 24.2061 27.4631 24.2061Z" fill="white"/>
<path d="M37.9923 24.2061H36.4611C36.224 24.2061 36.0344 24.3957 36.0344 24.628V30.2742L31.6776 24.3957C31.6776 24.3957 31.6539 24.3672 31.6445 24.353C31.635 24.3435 31.6255 24.3341 31.6208 24.3246C31.6208 24.3246 31.616 24.3198 31.6113 24.3151C31.6018 24.3104 31.597 24.3009 31.5876 24.2961C31.5876 24.2961 31.5781 24.2914 31.5781 24.2866C31.5686 24.2819 31.5639 24.2772 31.5544 24.2724C31.5544 24.2724 31.5449 24.2677 31.5402 24.2629C31.5307 24.2629 31.526 24.2535 31.5165 24.2487C31.5165 24.2487 31.507 24.2487 31.5022 24.244C31.4928 24.244 31.488 24.2345 31.4785 24.2345C31.4738 24.2345 31.4691 24.2345 31.4643 24.2298C31.4548 24.2298 31.4501 24.225 31.4406 24.2203C31.4359 24.2203 31.4311 24.2203 31.4264 24.2203C31.4169 24.2203 31.4122 24.2203 31.4027 24.2155C31.398 24.2155 31.3885 24.2155 31.3837 24.2155C31.3742 24.2155 31.3695 24.2155 31.36 24.2155C31.3505 24.2155 31.3458 24.2155 31.3363 24.2155C31.3316 24.2155 31.3268 24.2155 31.3221 24.2155H29.7908C29.5585 24.2155 29.3642 24.4052 29.3642 24.6375V34.1379C29.3642 34.3702 29.5538 34.5598 29.7908 34.5598H31.3221C31.5591 34.5598 31.7488 34.3702 31.7488 34.1379V28.4964L36.1102 34.3844C36.1387 34.4271 36.1766 34.4603 36.2193 34.4887C36.2288 34.4935 36.2382 34.4982 36.2477 34.5029C36.2477 34.5029 36.2572 34.503 36.262 34.5077C36.2667 34.5077 36.2762 34.5124 36.2809 34.5172C36.2856 34.5172 36.2951 34.5219 36.2999 34.5266C36.2999 34.5266 36.3094 34.5266 36.3141 34.5314C36.3236 34.5314 36.3331 34.5361 36.3425 34.5409C36.3425 34.5409 36.3425 34.5409 36.3473 34.5409C36.3805 34.5503 36.4184 34.5551 36.4563 34.5551H37.9876C38.2246 34.5551 38.4142 34.3655 38.4142 34.1332V24.6327C38.4142 24.4004 38.2246 24.2108 37.9876 24.2108" fill="white"/>
<path d="M23.7796 32.1753H19.6219V24.6281C19.6219 24.3958 19.4323 24.2014 19.1953 24.2014H17.664C17.4317 24.2014 17.2374 24.391 17.2374 24.6281V34.1285C17.2374 34.2423 17.2848 34.3466 17.3559 34.4225C17.3559 34.4225 17.3559 34.4225 17.3606 34.4272C17.3606 34.4272 17.3606 34.4272 17.3653 34.4319C17.4412 34.5031 17.5455 34.5505 17.6593 34.5505H23.7701C24.0024 34.5505 24.192 34.3608 24.192 34.1238V32.5925C24.192 32.3602 24.0024 32.1659 23.7701 32.1659" fill="white"/>
<path d="M46.4403 26.586C46.6726 26.586 46.8622 26.3964 46.8622 26.1593V24.6281C46.8622 24.391 46.6726 24.2014 46.4403 24.2014H40.3295C40.2157 24.2014 40.1114 24.2488 40.0356 24.3199C40.0356 24.3199 40.0355 24.3199 40.0308 24.3199C40.0308 24.3199 40.0261 24.3247 40.0261 24.3294C39.955 24.4053 39.9076 24.5096 39.9076 24.6233V34.1238C39.9076 34.2376 39.955 34.3419 40.0261 34.4177C40.0261 34.4177 40.0261 34.4177 40.0308 34.4225C40.0308 34.4225 40.0308 34.4225 40.0356 34.4272C40.1114 34.4983 40.2157 34.5457 40.3295 34.5457H46.4403C46.6726 34.5457 46.8622 34.3561 46.8622 34.1191V32.5878C46.8622 32.3555 46.6726 32.1611 46.4403 32.1611H42.2827V30.554H46.4403C46.6726 30.554 46.8622 30.3644 46.8622 30.1273V28.5961C46.8622 28.3591 46.6726 28.1694 46.4403 28.1694H42.2827V26.5623H46.4403V26.586Z" fill="white"/>
</svg>
